<?xml version="1.0" standalone="no"?>
<!DOCTYPE svg PUBLIC "-//W3C//DTD SVG 20010904//EN"
 "http://www.w3.org/TR/2001/REC-SVG-20010904/DTD/svg10.dtd">
<svg version="1.0" xmlns="http://www.w3.org/2000/svg"
 width="1280.000000pt" height="726.000000pt" viewBox="0 0 1280.000000 726.000000"
 preserveAspectRatio="xMidYMid meet">
<g transform="translate(0.000000,726.000000) scale(0.100000,-0.100000)"
fill="#000000" stroke="none">
<path d="M6326 7153 c-208 -320 -310 -690 -262 -961 13 -77 42 -167 83 -259
10 -25 -17 -12 -124 57 -205 134 -403 220 -539 235 -78 9 -193 -9 -252 -39
-91 -47 -137 -116 -148 -224 -16 -156 95 -376 220 -437 67 -33 110 -29 158 14
l31 28 -16 42 c-23 57 -21 102 6 142 64 95 222 133 369 89 101 -30 205 -142
194 -209 -9 -58 -53 -135 -155 -273 -110 -149 -131 -185 -131 -224 l0 -27 73
5 c136 10 246 70 305 168 18 30 36 56 41 58 4 1 32 -54 60 -124 l53 -127 -12
-66 c-72 -396 -206 -862 -337 -1160 -124 -286 -246 -476 -413 -641 -131 -130
-225 -193 -367 -243 -81 -29 -98 -31 -213 -31 -109 0 -136 4 -210 28 -218 72
-407 200 -631 427 -105 107 -317 360 -329 395 -7 19 10 277 19 287 4 4 25 -9
47 -29 21 -21 59 -46 84 -58 84 -39 340 -22 340 23 0 24 -67 83 -187 167 -139
96 -226 172 -250 218 -30 57 5 155 83 233 98 97 278 143 376 94 61 -30 81 -62
87 -140 l6 -66 39 -13 c131 -42 246 122 246 351 0 157 -59 270 -165 318 -59
27 -175 25 -269 -5 -148 -47 -319 -193 -492 -421 -48 -63 -91 -114 -96 -113
-5 2 -10 71 -12 153 -4 180 -20 246 -101 410 -94 191 -247 381 -432 535 -53
44 -99 80 -103 80 -9 0 -52 -170 -72 -280 -8 -48 -13 -151 -12 -290 0 -200 2
-222 27 -315 37 -139 111 -284 186 -367 34 -36 61 -72 61 -78 0 -14 -1 -14
-160 28 -388 102 -654 75 -799 -84 -82 -90 -93 -199 -33 -328 41 -88 143 -195
225 -236 108 -54 202 -38 242 41 15 27 14 30 -20 75 -29 37 -35 54 -35 93 0
95 86 181 223 223 85 25 162 21 239 -15 136 -62 142 -117 47 -417 -58 -180
-68 -262 -36 -268 31 -6 126 48 192 109 65 62 99 121 111 198 4 26 11 41 19
39 7 -2 49 -45 94 -97 l81 -94 0 -76 c0 -122 -29 -464 -51 -611 -57 -375 -175
-674 -325 -824 -81 -81 -143 -112 -302 -153 -294 -74 -489 -54 -753 78 -113
56 -328 198 -448 296 -72 58 -87 76 -102 118 -10 28 -18 60 -18 73 -1 22 2 23
32 15 17 -4 66 -8 107 -8 65 0 85 5 144 34 68 33 166 116 166 140 0 19 -59 39
-156 51 -326 42 -369 51 -416 97 -56 53 -57 178 -3 288 32 67 116 149 184 181
42 20 65 25 102 22 63 -6 94 -28 124 -88 29 -57 44 -61 111 -31 136 62 98 368
-65 532 -130 130 -288 116 -441 -40 -118 -120 -207 -351 -250 -646 -6 -44 -13
-88 -16 -97 -7 -24 -25 -23 -31 3 -13 49 -84 179 -128 234 -126 159 -333 291
-587 374 -162 52 -425 105 -417 83 7 -16 208 -200 374 -341 87 -75 238 -203
335 -286 183 -156 566 -531 711 -696 88 -101 352 -483 484 -704 184 -304 271
-554 304 -864 6 -51 12 -95 14 -98 2 -2 1860 -6 4129 -10 l4124 -6 17 100 c52
322 268 771 622 1298 305 453 465 623 1080 1145 276 234 525 458 525 471 0 5
-12 6 -27 4 -299 -50 -433 -90 -626 -186 -220 -110 -385 -276 -462 -466 -39
-95 -43 -91 -71 82 -63 390 -192 630 -384 719 -63 29 -160 27 -219 -3 -133
-69 -240 -275 -229 -441 8 -106 45 -156 126 -167 39 -5 40 -4 67 46 36 65 94
97 158 87 146 -24 289 -198 291 -355 1 -151 -51 -184 -334 -217 -182 -20 -246
-34 -265 -54 -15 -16 -15 -21 -3 -39 22 -32 87 -80 153 -114 53 -28 70 -31
145 -32 47 0 97 4 113 9 35 11 35 -1 2 -110 -24 -78 -28 -85 -93 -141 -263
-232 -483 -371 -692 -438 -70 -23 -108 -28 -220 -32 -121 -4 -145 -2 -234 21
-252 65 -413 195 -539 435 -136 258 -196 575 -232 1217 l-6 111 39 49 c80 100
138 158 150 150 7 -4 12 -22 12 -40 0 -50 55 -149 110 -199 60 -54 170 -113
193 -104 31 12 20 84 -39 267 -49 151 -57 186 -58 257 -1 73 1 84 23 107 14
15 50 39 80 54 48 23 68 27 141 27 75 0 93 -4 158 -34 157 -73 214 -201 132
-295 -35 -39 -36 -51 -11 -90 27 -41 57 -55 119 -56 147 -1 338 187 371 365
28 152 -66 281 -251 344 -146 51 -379 35 -670 -45 -54 -15 -101 -25 -104 -22
-3 4 22 39 56 80 134 159 195 317 221 569 13 131 6 252 -22 425 -18 113 -52
250 -63 262 -7 6 -77 -51 -165 -132 -331 -307 -499 -642 -478 -958 4 -64 3
-88 -6 -88 -7 1 -46 46 -87 102 -153 206 -355 386 -487 433 -62 22 -218 31
-265 16 -51 -17 -115 -76 -143 -132 -74 -146 -44 -400 59 -504 46 -46 87 -59
136 -45 49 14 59 26 53 68 -7 51 17 103 62 138 31 23 50 29 105 32 187 11 369
-123 388 -284 8 -76 -42 -130 -272 -288 -131 -91 -166 -123 -166 -151 0 -35
55 -50 180 -50 120 0 168 16 238 79 23 21 43 32 47 27 3 -6 10 -61 14 -123 10
-134 13 -129 -123 -302 -265 -339 -505 -561 -720 -666 -194 -95 -341 -93 -541
8 -107 53 -181 107 -284 207 -283 273 -506 706 -681 1320 -51 179 -130 526
-130 566 1 37 86 234 103 237 9 2 17 -8 21 -24 12 -46 113 -138 181 -163 69
-26 176 -46 199 -38 19 7 21 49 4 80 -6 12 -53 79 -105 149 -153 209 -191 294
-159 357 59 114 229 188 371 162 159 -30 234 -123 190 -237 -16 -43 -16 -46 1
-66 26 -28 68 -48 100 -48 75 0 175 87 232 202 114 233 58 438 -136 498 -86
27 -213 27 -312 0 -99 -27 -308 -131 -442 -219 -94 -62 -128 -80 -128 -67 0 2
13 35 29 74 47 113 65 212 65 347 -1 200 -52 401 -160 625 -53 111 -153 280
-165 280 -3 0 -31 -39 -63 -87z"/>
<path d="M2260 525 c0 -53 -18 -60 -45 -18 -21 31 -29 22 -40 -44 -4 -24 -12
-46 -18 -50 -7 -4 -39 -6 -71 -4 l-59 3 21 -29 c12 -17 28 -36 37 -43 24 -20
18 -41 -27 -87 l-42 -43 66 0 c37 0 70 -4 73 -10 3 -5 9 -32 12 -60 3 -27 10
-50 14 -50 5 0 18 14 31 30 37 50 48 40 48 -45 l0 -75 4130 0 4129 0 3 72 c2
43 8 73 15 75 6 2 23 -21 36 -51 14 -31 28 -56 31 -56 3 0 13 25 23 56 9 31
24 59 32 62 8 3 39 0 69 -6 31 -7 57 -10 59 -9 1 2 -14 27 -34 56 l-35 54 53
48 54 48 -61 1 c-77 0 -89 12 -80 78 3 27 3 52 -1 55 -4 4 -28 -13 -54 -39
l-47 -47 -31 22 c-29 21 -31 26 -31 87 l0 64 -4130 0 -4130 0 0 -45z"/>
</g>
</svg>
