<?xml version="1.0" standalone="no"?>
<!DOCTYPE svg PUBLIC "-//W3C//DTD SVG 20010904//EN"
 "http://www.w3.org/TR/2001/REC-SVG-20010904/DTD/svg10.dtd">
<svg version="1.0" xmlns="http://www.w3.org/2000/svg"
 width="1280.000000pt" height="1084.000000pt" viewBox="0 0 1280.000000 1084.000000"
 preserveAspectRatio="xMidYMid meet">
<g transform="translate(0.000000,1084.000000) scale(0.100000,-0.100000)"
fill="#000000" stroke="none">
<path d="M6304 10745 c-223 -248 -377 -557 -459 -920 -22 -97 -32 -168 -63
-455 l-7 -65 -298 -5 c-281 -5 -299 -6 -313 -24 -12 -17 -14 -114 -14 -593 0
-315 2 -573 4 -573 2 0 21 28 42 63 53 85 156 186 229 222 118 59 249 45 363
-39 168 -124 305 -440 338 -779 4 -37 10 -70 14 -72 5 -3 43 12 87 33 66 31
90 37 158 40 77 4 83 2 159 -37 44 -23 83 -41 86 -41 4 0 10 33 13 73 19 226
109 497 212 636 83 114 202 193 310 206 67 9 162 -15 234 -58 61 -37 148 -127
188 -195 l28 -47 3 535 c1 294 0 549 -3 566 -3 18 -15 44 -26 58 l-20 26 -284
0 -283 0 -6 28 c-3 15 -8 61 -11 102 -39 463 -166 844 -380 1145 -82 115 -196
243 -217 244 -9 1 -47 -33 -84 -74z"/>
<path d="M3294 10526 c-167 -200 -326 -561 -388 -881 -36 -186 -46 -300 -46
-505 0 -178 0 -181 -22 -190 -13 -5 -141 -30 -286 -55 -145 -25 -272 -50 -283
-55 -10 -6 -22 -22 -25 -35 -3 -14 6 -159 20 -322 15 -164 36 -406 47 -538 26
-316 23 -305 63 -225 75 152 167 255 274 306 77 38 192 40 266 6 188 -86 336
-315 421 -651 14 -55 25 -108 25 -118 1 -44 16 -46 66 -7 129 98 248 122 372
72 l62 -26 4 22 c3 11 7 80 10 151 17 387 164 704 375 807 60 30 74 33 161 33
91 0 98 -2 168 -39 51 -27 93 -61 142 -113 39 -41 70 -72 70 -69 0 53 -92
1044 -100 1076 -14 55 -35 80 -69 80 -14 0 -142 -21 -284 -47 -201 -36 -260
-44 -266 -34 -4 7 -16 56 -25 109 -88 497 -253 847 -531 1128 -66 66 -134 131
-152 143 l-32 21 -37 -44z"/>
<path d="M9382 10504 c-311 -248 -539 -688 -623 -1197 -12 -73 -25 -136 -29
-140 -4 -5 -128 13 -275 38 -147 25 -282 45 -299 43 -21 -2 -34 -11 -42 -28
-10 -21 -104 -1030 -104 -1113 0 -26 3 -25 49 31 66 80 123 125 206 163 57 27
80 32 139 32 286 0 499 -366 523 -896 5 -121 8 -137 22 -131 63 27 142 44 199
44 78 0 158 -33 232 -95 l45 -37 8 38 c72 326 157 515 291 650 110 109 219
152 342 132 142 -22 262 -124 354 -300 l38 -71 6 49 c19 154 87 998 83 1042
-7 92 -10 93 -317 142 -146 24 -270 47 -276 51 -7 6 -13 85 -17 222 -11 430
-80 725 -240 1042 -58 114 -211 355 -226 355 -4 0 -44 -30 -89 -66z"/>
<path d="M80 9224 c38 -115 254 -774 480 -1464 226 -690 417 -1261 424 -1268
10 -10 25 -8 79 13 43 16 88 25 123 25 48 0 55 2 50 16 -35 91 -56 452 -36
610 35 282 150 488 316 571 68 33 83 37 152 36 86 0 152 -21 245 -77 31 -19
57 -33 57 -31 0 21 -344 993 -357 1007 -38 43 -85 22 -352 -159 -117 -79 -219
-142 -225 -140 -7 3 -23 34 -35 69 -35 96 -134 295 -192 383 -173 265 -406
471 -651 575 -39 17 -88 33 -109 36 l-38 6 69 -208z"/>
<path d="M12665 9377 c-178 -72 -317 -170 -472 -330 -157 -164 -312 -413 -393
-635 -13 -35 -29 -66 -36 -69 -7 -2 -108 59 -225 138 -207 138 -277 178 -310
179 -43 0 -59 -35 -229 -529 -93 -272 -169 -495 -167 -497 1 -1 31 16 67 37
88 54 154 72 249 67 232 -10 403 -238 452 -606 15 -114 5 -396 -19 -524 l-18
-98 48 0 c27 0 74 -10 106 -21 31 -12 68 -22 81 -23 25 -1 13 -39 865 2567
141 431 141 401 1 344z"/>
<path d="M6220 7165 c-206 -46 -371 -160 -438 -303 -23 -48 -27 -71 -27 -142
0 -73 4 -93 29 -144 63 -130 212 -236 402 -287 113 -31 334 -31 449 0 187 49
338 158 401 286 26 53 29 71 29 150 0 82 -3 96 -32 152 -64 122 -203 224 -373
273 -98 29 -341 37 -440 15z"/>
<path d="M8984 6999 c-86 -14 -206 -57 -273 -96 -84 -50 -169 -136 -206 -209
-27 -52 -30 -69 -30 -149 0 -82 3 -97 33 -157 63 -129 218 -239 407 -289 115
-31 325 -32 446 -2 162 41 296 119 368 216 52 70 67 102 80 170 51 280 -266
530 -669 526 -58 -1 -128 -5 -156 -10z"/>
<path d="M3570 6989 c-247 -22 -463 -147 -543 -316 -28 -60 -32 -77 -32 -153
1 -72 5 -94 30 -145 64 -134 226 -249 420 -297 124 -30 333 -30 449 1 192 51
344 160 408 289 30 60 33 75 33 157 0 78 -4 97 -28 146 -107 218 -406 347
-737 318z"/>
<path d="M1285 6379 c-270 -40 -490 -160 -605 -331 -228 -342 58 -743 588
-823 53 -8 130 -15 170 -15 82 0 93 -13 32 -37 -47 -19 -48 -27 -24 -136 53
-234 221 -395 489 -469 69 -18 106 -21 265 -22 168 0 196 3 305 28 455 106
833 373 1046 738 48 81 114 238 125 292 12 66 27 62 79 -21 195 -307 534 -465
1000 -464 163 0 276 11 426 41 371 76 740 247 976 455 60 52 92 86 197 210
l26 30 23 -26 c12 -14 49 -59 82 -99 271 -330 743 -571 1219 -621 152 -16 413
-6 541 21 341 72 607 235 740 453 22 37 44 65 49 64 4 -2 25 -54 46 -118 21
-63 52 -144 70 -179 191 -378 586 -668 1052 -771 65 -15 144 -22 263 -26 146
-4 184 -2 270 16 182 37 308 104 417 219 34 37 77 94 95 127 29 56 73 190 73
225 0 10 -37 34 -96 63 -58 29 -93 52 -88 57 6 6 47 5 104 -1 185 -21 391 16
568 102 234 114 368 323 333 521 -34 195 -211 367 -461 446 -132 41 -172 47
-345 47 -145 0 -183 -4 -258 -23 -185 -49 -319 -122 -415 -227 -90 -99 -131
-197 -132 -317 0 -53 -2 -58 -26 -64 -14 -4 -85 -4 -157 -2 -111 5 -144 10
-205 32 -122 45 -237 121 -353 233 l-45 43 -105 -48 c-123 -58 -237 -97 -333
-113 -91 -15 -241 -6 -336 21 -148 42 -358 162 -557 316 -45 35 -86 64 -92 64
-5 0 -38 -16 -72 -36 -113 -67 -283 -143 -366 -163 -98 -25 -212 -27 -297 -5
-87 22 -242 99 -376 187 l-115 76 -30 -25 c-16 -13 -67 -49 -111 -79 -364
-247 -740 -230 -1172 51 -45 30 -88 54 -93 54 -6 0 -36 -23 -66 -50 -331 -303
-792 -316 -1140 -33 -55 45 -55 45 -76 25 -274 -245 -414 -341 -582 -398 -71
-25 -94 -28 -205 -27 -155 0 -252 24 -484 118 l-160 64 -66 -63 c-179 -171
-342 -242 -542 -234 l-73 3 -7 71 c-29 288 -295 498 -701 553 -90 13 -216 12
-302 0z"/>
<path d="M6373 5530 c-163 -267 -303 -406 -536 -530 -53 -28 -95 -56 -91 -61
8 -13 1271 -12 1279 1 3 5 -28 26 -70 46 -190 90 -299 203 -470 485 l-74 122
-38 -63z"/>
<path d="M8979 5323 c-62 -84 -205 -228 -274 -278 -77 -56 -207 -119 -312
-152 -52 -16 -83 -31 -83 -39 0 -8 5 -14 11 -14 10 0 1174 -204 1232 -216 20
-4 27 -2 27 9 0 8 -12 23 -27 32 -196 124 -326 289 -458 583 -33 72 -63 132
-66 132 -4 0 -26 -26 -50 -57z"/>
<path d="M3696 5209 c-36 -72 -91 -170 -123 -217 -74 -111 -207 -249 -322
-332 -50 -36 -89 -69 -87 -75 4 -14 -2 -15 658 106 329 60 600 109 603 109 3
0 5 6 5 14 0 8 -26 20 -65 31 -89 24 -194 76 -265 130 -71 55 -186 177 -265
284 -33 44 -63 80 -67 81 -4 0 -37 -59 -72 -131z"/>
<path d="M11385 4668 c-207 -190 -301 -239 -490 -259 -175 -18 -185 -20 -185
-32 0 -7 46 -30 103 -51 102 -39 368 -164 440 -208 l38 -23 19 25 c40 53 100
179 123 260 23 80 82 389 75 395 -2 2 -57 -46 -123 -107z"/>
<path d="M1344 4713 c3 -10 14 -74 26 -143 38 -230 75 -340 160 -473 l31 -48
42 26 c67 42 291 148 425 200 67 27 121 53 119 59 -2 6 -45 14 -95 17 -275 20
-365 65 -633 317 -70 65 -84 73 -75 45z"/>
<path d="M5710 4664 c-448 -43 -1005 -94 -1027 -94 -13 0 -23 -3 -23 -7 0 -5
29 -48 65 -98 141 -197 243 -412 287 -609 27 -120 29 -324 5 -448 -34 -171
-122 -381 -241 -578 -39 -64 -43 -75 -28 -78 16 -3 1068 89 1199 104 l53 6
-61 67 c-144 156 -238 342 -285 563 -25 113 -25 359 -1 480 43 218 130 426
252 609 64 94 72 110 58 108 -5 -1 -118 -12 -253 -25z"/>
<path d="M6980 4629 c7 -13 23 -40 35 -59 202 -327 298 -696 254 -983 -35
-229 -123 -423 -312 -680 -27 -37 -48 -69 -46 -71 5 -5 1253 -75 1257 -71 2 2
-26 45 -61 97 -36 51 -79 122 -97 158 -245 487 -156 1051 238 1509 l43 49 -53
6 c-44 5 -635 37 -1152 63 l-118 6 12 -24z"/>
<path d="M6336 4629 c-69 -17 -179 -83 -249 -148 -198 -187 -298 -476 -284
-818 12 -290 103 -521 271 -688 123 -122 240 -175 387 -175 587 0 878 991 463
1576 -64 91 -156 169 -254 217 -80 39 -89 41 -190 43 -58 2 -122 -1 -144 -7z"/>
<path d="M8636 4509 c-33 -5 -95 -26 -143 -49 -288 -140 -473 -556 -433 -978
26 -276 124 -499 286 -652 227 -214 511 -214 738 0 163 153 259 372 287 655
34 329 -88 694 -294 880 -79 72 -198 131 -292 145 -39 5 -74 9 -80 9 -5 -1
-36 -5 -69 -10z"/>
<path d="M4108 4490 c-119 -30 -274 -147 -358 -270 -81 -120 -147 -290 -170
-445 -16 -103 -16 -287 0 -390 46 -304 216 -574 425 -675 79 -38 133 -49 226
-50 102 0 189 28 282 90 205 137 337 393 369 718 44 443 -166 881 -483 1004
-61 24 -228 34 -291 18z"/>
<path d="M9330 4427 c0 -3 20 -59 45 -125 97 -259 136 -448 138 -662 1 -154
-12 -243 -55 -385 -52 -173 -149 -347 -294 -527 -36 -44 -63 -83 -59 -86 8 -8
1089 -262 1094 -256 2 2 -17 48 -42 101 -56 120 -91 222 -119 350 -31 143 -31
426 0 569 58 268 162 478 336 677 42 48 75 87 73 87 -3 0 -1046 244 -1089 255
-16 4 -28 5 -28 2z"/>
<path d="M3070 4268 c-294 -77 -537 -142 -539 -144 -2 -2 21 -34 51 -71 223
-276 333 -549 345 -855 9 -242 -26 -436 -132 -715 -30 -80 -54 -148 -52 -149
3 -3 1080 276 1085 281 2 2 -20 28 -50 57 -160 161 -268 368 -324 628 -26 119
-26 455 0 585 33 164 95 354 152 467 28 55 28 58 12 57 -7 0 -254 -64 -548
-141z"/>
<path d="M10650 4034 c-104 -27 -179 -73 -270 -164 -120 -120 -191 -252 -241
-448 -110 -430 43 -935 343 -1130 100 -65 166 -85 283 -85 117 0 183 20 282
85 411 267 507 1032 187 1484 -149 210 -380 312 -584 258z"/>
<path d="M2085 4029 c-82 -12 -206 -75 -283 -144 -220 -199 -335 -567 -292
-925 54 -442 331 -770 649 -770 285 0 529 241 628 618 34 132 44 383 19 516
-68 361 -259 621 -506 689 -76 21 -144 26 -215 16z"/>
<path d="M5725 2499 c-1670 -72 -3038 -361 -3652 -772 -98 -66 -212 -171 -257
-238 -57 -84 -81 -191 -65 -291 42 -260 399 -514 1007 -717 642 -215 1562
-369 2592 -435 755 -49 1095 -53 1790 -21 1704 79 3039 358 3650 763 106 71
235 193 278 265 137 227 39 473 -268 676 -625 414 -1981 697 -3690 771 -270
12 -1104 11 -1385 -1z"/>
</g>
</svg>
