<?xml version="1.0" encoding="iso-8859-1"?>
<!-- Generator: Adobe Illustrator 16.0.0, SVG Export Plug-In . SVG Version: 6.00 Build 0)  -->
<!DOCTYPE svg PUBLIC "-//W3C//DTD SVG 1.1//EN" "http://www.w3.org/Graphics/SVG/1.1/DTD/svg11.dtd">
<svg version="1.1" id="Capa_1" xmlns="http://www.w3.org/2000/svg" xmlns:xlink="http://www.w3.org/1999/xlink" x="0px" y="0px"
	 width="580.125px" height="580.125px" viewBox="0 0 580.125 580.125" style="enable-background:new 0 0 580.125 580.125;"
	 xml:space="preserve">
<g>
	<g id="Layer_1_121_">
		<g>
			<circle cx="226.312" cy="374.85" r="26.775"/>
			<path d="M491.512,266.475V163.2H87.337v103.275c-12.75,25.5-20.4,58.65-20.4,91.8c0,122.4,100.725,221.851,223.125,221.851
				c122.401,0,223.125-99.45,223.125-221.851C511.912,325.125,505.537,290.7,491.512,266.475z M290.062,529.125
				c-94.35,0-172.125-76.5-172.125-172.125c0-3.825,0-6.375,0-10.2c10.2,2.55,20.4,3.825,30.6,3.825
				c61.2,0,118.575-38.25,141.524-90.525c21.676,53.55,79.051,90.525,141.526,90.525c10.199,0,20.4-1.275,30.6-3.825
				c0,3.825,0,6.375,0,10.2C462.188,452.625,384.412,529.125,290.062,529.125z"/>
			<circle cx="353.812" cy="374.85" r="26.775"/>
			<path d="M491.512,40.8c0-22.95-24.225-40.8-45.898-40.8H133.237c-22.95,0-45.9,17.85-45.9,40.8v72.675h404.174V40.8L491.512,40.8
				z"/>
		</g>
	</g>
</g>
<g>
</g>
<g>
</g>
<g>
</g>
<g>
</g>
<g>
</g>
<g>
</g>
<g>
</g>
<g>
</g>
<g>
</g>
<g>
</g>
<g>
</g>
<g>
</g>
<g>
</g>
<g>
</g>
<g>
</g>
</svg>
